<svg width="194" height="158" viewBox="0 0 194 158" fill="none" xmlns="http://www.w3.org/2000/svg">
<path d="M46.0994 90.9472C54.0528 90.9807 61.7393 91.6135 68.2263 93.1738C74.499 94.6826 79.7182 97.075 82.949 100.697L82.9793 100.732C88.6437 99.6133 98.992 98.7373 110.653 101.101L110.957 100.751C114.188 97.1288 119.407 94.7363 125.679 93.2275C132.167 91.6672 139.853 91.0344 147.806 91.0009C163.714 90.9341 180.772 93.2644 191.629 95.4355L191.814 95.4843C192.235 95.6262 192.565 95.9544 192.815 96.331C193.105 96.7678 193.332 97.3344 193.502 97.9628C193.842 99.2231 193.978 100.832 193.869 102.419C193.76 104.002 193.403 105.613 192.717 106.856C192.025 108.108 190.959 109.044 189.45 109.094L189.42 109.095L189.388 109.093C187.31 108.904 186.36 109.495 185.858 110.161C185.321 110.874 185.212 111.742 185.034 112.48C185.025 130.657 180.602 141.686 174.591 148.301C168.571 154.923 161.026 157.046 154.948 157.553H154.94C147.588 158.045 138.54 157.555 137.907 157.555H137.888L137.869 157.553C124.396 156.536 115.16 147.977 110.51 136.935C107.442 129.65 106.36 121.267 107.363 113.208C103.453 111.699 94.9189 109.82 86.3513 111.792C87.6597 120.263 86.6371 129.185 83.3963 136.881C78.7457 147.923 69.51 156.482 56.0369 157.499L56.0173 157.501H55.9988C55.3631 157.501 46.3168 157.991 38.9656 157.499H38.9578C32.8795 156.992 25.3342 154.869 19.3152 148.247C13.3036 141.633 8.88071 130.603 8.87184 112.427C8.6941 111.689 8.5844 110.821 8.04762 110.107C7.54588 109.441 6.59566 108.85 4.51735 109.039L4.4861 109.041L4.45582 109.04C2.94709 108.99 1.88069 108.054 1.18922 106.803C0.502603 105.56 0.145893 103.948 0.0368793 102.365C-0.0722783 100.779 0.0640251 99.1695 0.404067 97.9091C0.573691 97.2807 0.800924 96.7141 1.09059 96.2773C1.34052 95.9006 1.6705 95.5727 2.09157 95.4306L2.27711 95.3818C13.1336 93.2107 30.1921 90.8804 46.0994 90.9472ZM158.534 100.427C143.952 99.5572 137.075 100.421 137.034 100.427C131.907 101.055 118.634 102.727 117.034 111.927C115.034 123.427 115.534 145.427 139.534 149.927C139.563 149.932 146.295 151.159 153.034 149.927C159.788 148.692 173.534 144.926 175.534 125.927C176.407 115.055 175.534 112.427 175.534 111.927C174.907 109.054 172.908 101.284 158.534 100.427ZM56.8728 100.372C56.8728 100.372 49.999 99.4999 35.3728 100.372C20.9988 101.229 19.0001 109 18.3728 111.872C18.3724 112.373 17.5002 115.003 18.3728 125.872C20.373 144.872 34.1189 148.637 40.8728 149.872C47.6265 151.107 54.3728 149.872 54.3728 149.872C78.3719 145.372 78.8727 123.372 76.8728 111.872C75.2728 102.673 62 101 56.8728 100.372ZM76.6384 1.24213C87.0415 0.107122 100.783 -0.661195 114.986 0.81244C143.157 3.73528 173.305 15.5086 182.64 50.9091L182.857 51.7499V51.7509C183.876 55.8254 184.08 63.141 183.934 70.5693C183.788 78.0201 183.287 85.6571 182.87 90.416L182.825 90.9277L182.315 90.8691L169.315 89.3691L168.92 89.3232L168.876 88.9277L167.926 80.372H159.053L158.919 80.0829L146.529 53.3974C145.356 57.8895 142.645 63.9208 137.9 68.9892C132.619 74.6299 124.821 79.0749 113.863 78.872L113.036 78.8564L113.433 78.1318C116.017 73.4196 119.297 66.0543 118.628 54.8456C114.561 68.2411 102.021 78.8719 86.3718 78.872H85.3543L85.9763 78.0663C87.3731 76.2587 89.2307 73.411 90.7996 70.2734C92.051 67.7704 93.1024 65.1117 93.6023 62.666C84.7501 73.3688 69.3709 78.9137 45.8923 79.872L44.7966 79.9169L45.4822 79.0595C46.7972 77.4157 48.7264 74.6202 50.2244 71.5995C51.5115 69.004 52.4375 66.3175 52.4519 64.0722C49.865 66.9473 46.836 70.6983 42.4412 73.9609C37.6349 77.5288 31.1849 80.5289 21.8006 81.3369L20.365 89.954L20.2986 90.3544L8.3943 90.872L7.98317 90.8896L7.88649 90.4902C4.95275 78.4199 3.94395 59.6131 10.4675 42.3954C17.004 25.1443 31.0943 9.51939 58.2703 3.88275L58.3211 3.87201H58.3718C58.4387 3.87199 58.6087 3.85474 58.9129 3.81049C59.2043 3.76809 59.5879 3.706 60.0613 3.62689C61.0049 3.4692 62.2992 3.24569 63.8865 2.98725C67.0648 2.46975 71.4356 1.80978 76.6384 1.24213Z" fill="white"/>
</svg>
