<svg width="194" height="158" viewBox="0 0 194 158" fill="none" xmlns="http://www.w3.org/2000/svg">
<path d="M46.0994 90.9462C54.0528 90.9797 61.7393 91.6125 68.2263 93.1728C74.499 94.6816 79.7181 97.0741 82.949 100.696L82.9793 100.731C88.6437 99.6123 98.9922 98.7373 110.653 101.101L110.957 100.751C114.188 97.1288 119.407 94.7363 125.679 93.2275C132.167 91.6672 139.853 91.0344 147.806 91.0009C163.714 90.9341 180.772 93.2644 191.629 95.4355L191.814 95.4843C192.235 95.6262 192.565 95.9543 192.815 96.331C193.105 96.7678 193.332 97.3344 193.502 97.9628C193.842 99.2231 193.978 100.832 193.869 102.419C193.76 104.002 193.403 105.613 192.717 106.856C192.025 108.108 190.959 109.044 189.45 109.094L189.42 109.095L189.388 109.093C187.31 108.904 186.36 109.495 185.858 110.161C185.321 110.874 185.212 111.742 185.034 112.48C185.025 130.657 180.602 141.686 174.591 148.301C168.571 154.923 161.026 157.046 154.948 157.553H154.94C147.587 158.045 138.539 157.555 137.907 157.555H137.888L137.869 157.553C124.396 156.536 115.16 147.977 110.51 136.935C107.442 129.65 106.361 121.267 107.363 113.208C103.453 111.699 94.9189 109.82 86.3513 111.792C87.6596 120.263 86.637 129.184 83.3963 136.88C78.7458 147.922 69.5103 156.481 56.0369 157.498L56.0174 157.5H55.9988C55.3638 157.5 46.3172 157.99 38.9656 157.498H38.9578C32.8794 156.991 25.3343 154.868 19.3152 148.246C13.3036 141.632 8.88061 130.602 8.87186 112.426C8.69412 111.688 8.58461 110.82 8.04764 110.106C7.54584 109.44 6.59546 108.849 4.51736 109.038L4.48611 109.04L4.45584 109.039C2.94686 108.989 1.8807 108.053 1.18924 106.802C0.502596 105.559 0.145844 103.947 0.0368958 102.364C-0.0722511 100.777 0.0639219 99.1685 0.404083 97.9081C0.573757 97.2796 0.800836 96.7132 1.09061 96.2763C1.34056 95.8996 1.6705 95.5716 2.09158 95.4296L2.27713 95.3808C13.1336 93.2097 30.1921 90.8794 46.0994 90.9462ZM158.534 100.427C143.957 99.5575 137.081 100.421 137.034 100.427C131.907 101.055 118.634 102.727 117.034 111.927C115.034 123.427 115.534 145.427 139.534 149.927C139.577 149.935 146.302 151.158 153.034 149.927C159.788 148.692 173.534 144.926 175.534 125.927C176.407 115.055 175.534 112.427 175.534 111.927C174.907 109.054 172.908 101.284 158.534 100.427ZM56.8719 100.372C56.8136 100.365 49.9363 99.5036 35.3719 100.372C20.9977 101.229 18.999 109 18.3719 111.872C18.3716 112.373 17.4992 115.002 18.3719 125.872C20.3719 144.871 34.1178 148.637 40.8719 149.872C47.5981 151.102 54.3169 149.882 54.3719 149.872C78.3716 145.372 78.8718 123.372 76.8719 111.872C75.2718 102.672 61.9986 101 56.8719 100.372ZM76.6385 1.24213C87.0415 0.10712 100.783 -0.661196 114.986 0.812439C143.157 3.73528 173.305 15.5086 182.64 50.9091L182.857 51.7499V51.7509C183.876 55.8254 184.08 63.141 183.934 70.5693C183.788 78.0201 183.287 85.6571 182.87 90.416L182.825 90.9277L182.315 90.8691L169.315 89.3691L168.92 89.3232L168.876 88.9277L167.926 80.372H159.053L158.919 80.0829L146.529 53.3974C145.356 57.8895 142.645 63.9208 137.9 68.9892C132.619 74.6299 124.821 79.0749 113.863 78.872L113.036 78.8564L113.433 78.1318C116.017 73.4196 119.297 66.0543 118.628 54.8456C114.561 68.2411 102.021 78.8719 86.3719 78.872H85.3543L85.9763 78.0663C87.3731 76.2587 89.2307 73.411 90.7996 70.2734C92.0511 67.7704 93.1024 65.1117 93.6023 62.666C84.7501 73.3688 69.3709 78.9137 45.8924 79.872L44.7967 79.9169L45.4822 79.0595C46.7972 77.4157 48.7264 74.6202 50.2244 71.5995C51.5115 69.004 52.4375 66.3175 52.4519 64.0722C49.865 66.9473 46.836 70.6983 42.4412 73.9609C37.635 77.5288 31.1849 80.5289 21.8006 81.3369L20.365 89.954L20.2986 90.3544L8.39432 90.872L7.98318 90.8896L7.88651 90.4902C4.95277 78.4199 3.94397 59.6131 10.4676 42.3954C17.004 25.1443 31.0943 9.51938 58.2703 3.88275L58.3211 3.87201H58.3719C58.4387 3.87199 58.6087 3.85474 58.9129 3.81049C59.2043 3.76809 59.5879 3.706 60.0613 3.62689C61.0049 3.4692 62.2992 3.24569 63.8865 2.98724C67.0648 2.46975 71.4356 1.80978 76.6385 1.24213Z" fill="black"/>
</svg>
